<svg width="845.222509765625px" height="122.021240234375px" xmlns="http://www.w3.org/2000/svg" viewBox="-172.6112548828125 13.9893798828125 845.222509765625 122.021240234375" style="background:#596886" preserveAspectRatio="xMidYMid"><defs><filter id="editing-hover" x="-100%" y="-100%" width="300%" height="300%"><feFlood flood-color="#052b4a" result="flood"></feFlood><feComposite operator="in" in2="SourceAlpha" in="flood" result="shadow"></feComposite><feOffset dx="-4" dy="-4" in="SourceGraphic" result="offset-1"></feOffset><feOffset dx="4" dy="4" in="shadow" result="offset-2"></feOffset><feMerge><feMergeNode in="offset-2"></feMergeNode><feMergeNode in="offset-1"></feMergeNode></feMerge></filter></defs><g filter="url(#editing-hover)"><g transform="translate(-52.89063718914986, 104.78218841552734)"><path d="M21.12-17.98L21.12-17.98L21.12-17.98Q23.42-22.08 23.42-26.24L23.42-26.24L23.42-26.24Q23.42-28.99 21.44-28.99L21.44-28.99L21.44-28.99Q19.90-28.99 18.30-26.37L18.30-26.37L18.30-26.37Q16.64-23.74 16.13-20.35L16.13-20.35L12.80 0L-0.45 1.28L6.08-32.64L16.64-33.92L15.49-27.46L15.49-27.46Q18.62-33.92 25.66-33.92L25.66-33.92L25.66-33.92Q29.38-33.92 31.39-32L31.39-32L31.39-32Q33.41-30.08 33.41-26.14L33.41-26.14L33.41-26.14Q33.41-22.21 30.82-19.71L30.82-19.71L30.82-19.71Q28.22-17.22 23.81-17.22L23.81-17.22L23.81-17.22Q21.89-17.22 21.12-17.98ZM60.35-10.82L60.35-10.82L60.35-10.82Q61.95-9.73 61.95-7.33L61.95-7.33L61.95-7.33Q61.95-4.93 60.74-3.39L60.74-3.39L60.74-3.39Q59.52-1.86 57.54-0.83L57.54-0.83L57.54-0.83Q53.44 1.28 49.02 1.28L49.02 1.28L49.02 1.28Q44.61 1.28 42.02 0.32L42.02 0.32L42.02 0.32Q39.42-0.64 37.70-2.43L37.70-2.43L37.70-2.43Q34.30-5.82 34.30-12.03L34.30-12.03L34.30-12.03Q34.30-21.70 39.55-27.58L39.55-27.58L39.55-27.58Q45.18-33.92 54.98-33.92L54.98-33.92L54.98-33.92Q61.06-33.92 64.06-31.36L64.06-31.36L64.06-31.36Q66.30-29.44 66.30-26.30L66.30-26.30L66.30-26.30Q66.30-15.04 46.85-15.04L46.85-15.04L46.85-15.04Q46.59-13.38 46.59-11.97L46.59-11.97L46.59-11.97Q46.59-9.02 47.90-7.90L47.90-7.90L47.90-7.90Q49.22-6.78 51.65-6.78L51.65-6.78L51.65-6.78Q54.08-6.78 56.67-7.90L56.67-7.90L56.67-7.90Q59.26-9.02 60.35-10.82ZM47.30-17.79L47.30-17.79L47.30-17.79Q51.84-17.79 54.46-20.61L54.46-20.61L54.46-20.61Q57.09-23.30 57.09-27.58L57.09-27.58L57.09-27.58Q57.09-29.06 56.54-29.86L56.54-29.86L56.54-29.86Q56-30.66 54.91-30.66L54.91-30.66L54.91-30.66Q53.82-30.66 52.90-30.24L52.90-30.24L52.90-30.24Q51.97-29.82 51.01-28.42L51.01-28.42L51.01-28.42Q48.64-25.22 47.30-17.79ZM91.71-31.55L91.71-31.55L91.71-31.55Q93.82-33.92 97.47-33.92L97.47-33.92L97.47-33.92Q99.71-33.92 101.44-32.70L101.44-32.70L101.44-32.70Q103.17-31.49 103.17-29.22L103.17-29.22L103.17-29.22Q103.17-26.94 102.46-24.51L102.46-24.51L102.46-24.51Q101.76-22.08 100.67-19.58L100.67-19.58L100.67-19.58Q98.50-14.72 95.49-10.69L95.49-10.69L95.49-10.69Q91.26-4.86 87.20-1.79L87.20-1.79L87.20-1.79Q83.14 1.28 78.72 1.28L78.72 1.28L78.72 1.28Q75.14 1.28 72.96 0.45L72.96 0.45L72.96 0.45Q72.58-12.99 72.10-17.79L72.10-17.79L72.10-17.79Q71.62-22.59 71.23-25.22L71.23-25.22L71.23-25.22Q70.59-30.34 68.67-31.55L68.67-31.55L68.67-31.55Q70.14-32.83 71.58-33.38L71.58-33.38L71.58-33.38Q73.02-33.92 76-33.92L76-33.92L76-33.92Q78.98-33.92 81.09-31.58L81.09-31.58L81.09-31.58Q83.20-29.25 83.62-25.12L83.62-25.12L83.62-25.12Q84.03-20.99 84.03-16L84.03-16L84.03-16Q84.03-11.01 83.65-4.99L83.65-4.99L83.65-4.99Q85.63-6.40 87.74-10.69L87.74-10.69L87.74-10.69Q90.62-16.64 91.65-23.81L91.65-23.81L91.65-23.81Q91.97-25.98 91.97-28.29L91.97-28.29L91.97-28.29Q91.97-30.59 91.71-31.55ZM118.85 1.28L118.85 1.28L118.85 1.28Q104.77 1.28 104.77-11.97L104.77-11.97L104.77-11.97Q104.77-21.38 109.95-27.46L109.95-27.46L109.95-27.46Q115.46-33.92 124.99-33.92L124.99-33.92L124.99-33.92Q131.90-33.92 135.42-30.72L135.42-30.72L135.42-30.72Q138.94-27.52 138.94-20.80L138.94-20.80L138.94-20.80Q138.94-10.56 133.44-4.61L133.44-4.61L133.44-4.61Q128.06 1.28 118.85 1.28ZM120.51-26.56L120.51-26.56L120.51-26.56Q119.74-24.83 119.14-22.24L119.14-22.24L119.14-22.24Q118.53-19.65 117.76-15.55L117.76-15.55L117.76-15.55Q116.99-11.46 116.99-6.40L116.99-6.40L116.99-6.40Q116.99-4.74 117.54-3.65L117.54-3.65L117.54-3.65Q118.08-2.56 119.55-2.56L119.55-2.56L119.55-2.56Q121.02-2.56 121.95-3.26L121.95-3.26L121.95-3.26Q122.88-3.97 123.58-5.63L123.58-5.63L123.58-5.63Q124.86-8.58 125.89-14.05L125.89-14.05L125.89-14.05Q126.91-19.52 127.01-21.89L127.01-21.89L127.01-21.89Q127.10-24.26 127.10-26.02L127.10-26.02L127.10-26.02Q127.10-27.78 126.59-28.93L126.59-28.93L126.59-28.93Q126.08-30.08 124.64-30.08L124.64-30.08L124.64-30.08Q123.20-30.08 122.24-29.18L122.24-29.18L122.24-29.18Q121.28-28.29 120.51-26.56ZM151.23 0.19L151.23 0.19L151.23 0.19Q149.18 1.28 146.37 1.28L146.37 1.28L146.37 1.28Q143.55 1.28 142.02-0.16L142.02-0.16L142.02-0.16Q140.48-1.60 140.48-4.38L140.48-4.38L140.48-4.38Q140.48-7.17 142.43-9.89L142.43-9.89L142.43-9.89Q144.38-12.61 147.30-14.14L147.30-14.14L147.30-14.14Q150.21-15.68 152.26-16.58L152.26-16.58L148.22-25.86L148.22-25.86Q147.14-28.22 145.09-28.22L145.09-28.22L144.58-28.16L144.38-28.16L144.38-28.16Q144.77-30.40 147.39-32.13L147.39-32.13L147.39-32.13Q150.02-33.92 153.02-33.92L153.02-33.92L153.02-33.92Q157.89-33.92 160.13-29.06L160.13-29.06L160.64-28.03L163.39-21.25L163.39-21.25Q165.12-22.02 165.86-23.46L165.86-23.46L165.86-23.46Q166.59-24.90 166.59-27.74L166.59-27.74L166.59-27.74Q166.59-30.59 165.06-32.38L165.06-32.38L165.06-32.38Q167.49-33.92 170.69-33.92L170.69-33.92L170.69-33.92Q176.45-33.92 176.45-28.35L176.45-28.35L176.45-28.35Q176.45-22.27 168.83-18.75L168.83-18.75L164.99-16.96L168.45-8.06L168.45-8.06Q169.47-5.38 171.33-4.22L171.33-4.22L171.33-4.22Q172.10-3.71 172.99-3.65L172.99-3.65L172.99-3.65Q171.07-0.51 166.91 0.90L166.91 0.90L166.91 0.90Q165.63 1.28 163.90 1.28L163.90 1.28L163.90 1.28Q162.18 1.28 160.19 0.10L160.19 0.10L160.19 0.10Q158.21-1.09 157.50-2.94L157.50-2.94L153.98-12.10L153.98-12.10Q150.40-10.50 150.40-4.67L150.40-4.67L150.40-4.67Q150.40-1.98 151.23 0.19ZM188.10-29.50L181.31-29.50L181.31-29.50Q183.68-37.70 183.81-46.34L183.81-46.34L185.66-46.59L185.66-46.59Q186.62-46.72 187.33-46.72L187.33-46.72L187.33-46.72Q190.14-46.72 191.68-45.34L191.68-45.34L191.68-45.34Q193.22-43.97 193.22-41.54L193.22-41.54L193.22-41.54Q193.22-38.98 192.06-36.16L192.06-36.16L192.06-36.16Q190.02-31.17 188.10-29.50L188.10-29.50ZM211.58-22.46L211.58-22.46L211.58-22.46Q212.48-24.83 212.48-26.88L212.48-26.88L212.48-26.88Q212.48-30.66 209.41-30.66L209.41-30.66L209.41-30.66Q207.81-30.66 206.50-29.22L206.50-29.22L206.50-29.22Q205.18-27.78 205.18-25.98L205.18-25.98L205.18-25.98Q205.18-24.70 206.21-23.68L206.21-23.68L206.21-23.68Q207.68-22.27 211.46-19.97L211.46-19.97L211.46-19.97Q215.23-17.66 216.67-15.78L216.67-15.78L216.67-15.78Q218.11-13.89 218.11-11.30L218.11-11.30L218.11-11.30Q218.11-8.70 216.86-6.34L216.86-6.34L216.86-6.34Q215.62-3.97 213.38-2.30L213.38-2.30L213.38-2.30Q208.58 1.28 200.90 1.28L200.90 1.28L200.90 1.28Q196.74 1.28 193.54-0.90L193.54-0.90L193.54-0.90Q190.34-3.01 190.34-5.50L190.34-5.50L190.34-5.50Q190.34-8 192.16-9.47L192.16-9.47L192.16-9.47Q193.98-10.94 196.67-10.94L196.67-10.94L196.67-10.94Q199.36-10.94 201.02-9.92L201.02-9.92L201.02-9.92Q200.19-7.81 200.19-6.40L200.19-6.40L200.19-6.40Q200.19-2.18 203.78-2.18L203.78-2.18L203.78-2.18Q205.31-2.18 206.34-3.14L206.34-3.14L206.34-3.14Q207.36-4.10 207.36-5.76L207.36-5.76L207.36-5.76Q207.36-9.02 201.86-12.48L201.86-12.48L201.86-12.48Q197.38-15.42 196.35-16.58L196.35-16.58L196.35-16.58Q194.62-18.62 194.62-21.18L194.62-21.18L194.62-21.18Q194.62-23.74 195.84-26.18L195.84-26.18L195.84-26.18Q197.06-28.61 199.30-30.34L199.30-30.34L199.30-30.34Q203.97-33.92 212.10-33.92L212.10-33.92L212.10-33.92Q216.26-33.92 218.72-32.26L218.72-32.26L218.72-32.26Q221.18-30.59 221.18-27.78L221.18-27.78L221.18-27.78Q221.18-24.96 219.49-23.36L219.49-23.36L219.49-23.36Q217.79-21.76 214.72-21.76L214.72-21.76L214.72-21.76Q212.61-21.76 211.58-22.46ZM266.56-4.38L266.56-4.38L266.56-4.38Q263.87-1.66 260.19-0.19L260.19-0.19L260.19-0.19Q256.51 1.28 252.86 1.28L252.86 1.28L252.86 1.28Q249.22 1.28 247.94 0.64L247.94 0.64L245.95 11.52L232.96 12.80L241.79-32.64L252.22-33.73L251.39-29.31L251.39-29.31Q254.08-33.86 259.65-33.86L259.65-33.86L259.65-33.86Q265.92-33.86 269.25-29.82L269.25-29.82L269.25-29.82Q272.19-26.18 272.19-20.61L272.19-20.61L272.19-20.61Q272.19-15.04 270.72-11.07L270.72-11.07L270.72-11.07Q269.25-7.10 266.56-4.38ZM252.10-22.34L248.70-3.58L248.70-3.58Q250.05-2.43 251.71-2.43L251.71-2.43L251.71-2.43Q253.38-2.43 254.34-3.07L254.34-3.07L254.34-3.07Q255.30-3.71 256-4.99L256-4.99L256-4.99Q257.92-8.45 259.46-18.94L259.46-18.94L259.46-18.94Q259.90-22.02 259.90-25.02L259.90-25.02L259.90-25.02Q259.90-28.03 259.23-28.99L259.23-28.99L259.23-28.99Q258.56-29.95 257.28-29.95L257.28-29.95L257.28-29.95Q253.38-29.95 252.10-22.34L252.10-22.34ZM291.33-3.52L291.33-3.52L291.33-3.52Q289.34 1.28 283.01 1.28L283.01 1.28L283.01 1.28Q279.81 1.28 277.76-0.96L277.76-0.96L277.76-0.96Q276.10-2.82 276.10-4.93L276.10-4.93L276.10-4.93Q276.10-9.73 278.34-20.22L278.34-20.22L283.01-44.80L296-46.08L289.79-13.70L289.79-13.70Q288.70-8.96 288.70-7.30L288.70-7.30L288.70-7.30Q288.70-3.65 291.33-3.52ZM299.55-1.92L299.55-1.92L299.55-1.92Q298.05-3.58 297.38-6.21L297.38-6.21L297.38-6.21Q296.70-8.83 296.70-13.12L296.70-13.12L296.70-13.12Q296.70-17.41 298.18-21.31L298.18-21.31L298.18-21.31Q299.65-25.22 302.34-28.03L302.34-28.03L302.34-28.03Q307.84-33.92 316.93-33.92L316.93-33.92L316.93-33.92Q320.19-33.92 322.56-32.83L322.56-32.83L333.50-33.92L328.77-8.96L328.77-8.96Q328.58-8.19 328.58-6.78L328.58-6.78L328.58-6.78Q328.58-5.38 329.44-4.48L329.44-4.48L329.44-4.48Q330.30-3.58 331.58-3.46L331.58-3.46L331.58-3.46Q330.94-1.28 328.61 0L328.61 0L328.61 0Q326.27 1.28 323.65 1.28L323.65 1.28L323.65 1.28Q321.02 1.28 319.26 0.29L319.26 0.29L319.26 0.29Q317.50-0.70 316.99-2.37L316.99-2.37L316.99-2.37Q315.97-0.77 313.79 0.26L313.79 0.26L313.79 0.26Q311.62 1.28 308.70 1.28L308.70 1.28L308.70 1.28Q305.79 1.28 303.42 0.51L303.42 0.51L303.42 0.51Q301.06-0.26 299.55-1.92ZM313.06-27.90L313.06-27.90L313.06-27.90Q312.32-26.75 311.68-24.80L311.68-24.80L311.68-24.80Q311.04-22.85 309.98-17.63L309.98-17.63L309.98-17.63Q308.93-12.42 308.93-8.70L308.93-8.70L308.93-8.70Q308.93-4.99 309.50-3.90L309.50-3.90L309.50-3.90Q310.08-2.82 311.10-2.82L311.10-2.82L311.10-2.82Q313.15-2.82 314.66-4.77L314.66-4.77L314.66-4.77Q316.16-6.72 316.74-10.18L316.74-10.18L320.13-28.93L320.13-28.93Q318.78-30.08 317.22-30.08L317.22-30.08L317.22-30.08Q315.65-30.08 314.72-29.57L314.72-29.57L314.72-29.57Q313.79-29.06 313.06-27.90ZM357.31-7.23L357.31-7.23L357.31-7.23Q353.98-3.78 347.90-3.78L347.90-3.78L347.90-3.78Q340.29-3.78 338.69-9.34L338.69-9.34L338.69-9.34Q338.18-11.01 338.18-12.86L338.18-12.86L338.18-12.86Q338.18-14.72 338.56-16.64L338.56-16.64L341.57-32.64L354.56-33.92L351.04-15.30L351.04-15.30Q350.91-14.46 350.72-13.57L350.72-13.57L350.72-13.57Q350.53-12.67 350.53-11.74L350.53-11.74L350.53-11.74Q350.53-10.82 350.85-10.21L350.85-10.21L350.85-10.21Q351.17-9.60 351.62-9.22L351.62-9.22L351.62-9.22Q352.38-8.70 353.76-8.70L353.76-8.70L353.76-8.70Q355.14-8.70 356.32-10.37L356.32-10.37L356.32-10.37Q357.50-12.03 358.08-14.91L358.08-14.91L361.60-32.64L374.21-33.92L369.41-8.77L369.41-8.77Q367.04 3.52 362.18 8.38L362.18 8.38L362.18 8.38Q359.68 10.88 356.45 11.87L356.45 11.87L356.45 11.87Q353.22 12.86 349.06 12.86L349.06 12.86L349.06 12.86Q342.34 12.86 338.50 10.75L338.50 10.75L338.50 10.75Q334.66 8.64 334.66 5.12L334.66 5.12L334.66 5.12Q334.66 2.50 336.64 0.99L336.64 0.99L336.64 0.99Q338.62-0.51 341.70-0.51L341.70-0.51L341.70-0.51Q344.38-0.51 346.43 0.64L346.43 0.64L346.43 0.64Q347.65 1.34 348.22 2.24L348.22 2.24L348.22 2.24Q346.75 3.52 346.75 5.63L346.75 5.63L346.75 5.63Q346.75 8.45 349.31 8.45L349.31 8.45L349.31 8.45Q353.54 8.45 355.97-1.28L355.97-1.28L355.97-1.28Q356.67-4.16 357.31-7.23ZM381.06-26.75L381.06-26.75L381.06-26.75Q383.23-29.82 386.53-31.87L386.53-31.87L386.53-31.87Q389.82-33.92 393.86-33.92L393.86-33.92L393.86-33.92Q397.89-33.92 399.81-32.64L399.81-32.64L412.35-33.92L408.00-9.34L408.00-9.34Q405.76 3.20 401.02 8.13L401.02 8.13L401.02 8.13Q396.48 12.80 387.65 12.80L387.65 12.80L387.65 12.80Q380.93 12.80 377.09 10.69L377.09 10.69L377.09 10.69Q373.25 8.58 373.25 5.06L373.25 5.06L373.25 5.06Q373.25 2.43 375.23 0.93L375.23 0.93L375.23 0.93Q377.22-0.58 380.29-0.58L380.29-0.58L380.29-0.58Q382.98-0.58 385.02 0.64L385.02 0.64L385.02 0.64Q386.24 1.28 386.82 2.18L386.82 2.18L386.82 2.18Q385.34 3.46 385.34 5.57L385.34 5.57L385.34 5.57Q385.34 8.32 387.90 8.32L387.90 8.32L387.90 8.32Q392.19 8.32 394.62-1.79L394.62-1.79L394.62-1.79Q395.33-4.54 395.90-7.30L395.90-7.30L395.90-7.30Q393.02-3.78 386.50-3.78L386.50-3.78L386.50-3.78Q381.95-3.78 379.33-5.95L379.33-5.95L379.33-5.95Q376.70-8.13 376.70-13.25L376.70-13.25L376.70-13.25Q376.70-16.45 377.79-20.06L377.79-20.06L377.79-20.06Q378.88-23.68 381.06-26.75ZM389.38-13.06L389.38-13.06L389.38-13.06Q389.38-8.70 391.62-8.70L391.62-8.70L391.62-8.70Q393.15-8.70 394.62-10.37L394.62-10.37L394.62-10.37Q395.78-11.71 396.22-13.70L396.22-13.70L399.49-30.14L399.49-30.14Q399.17-30.21 398.85-30.34L398.85-30.34L398.85-30.34Q398.21-30.59 397.38-30.59L397.38-30.59L397.38-30.59Q393.47-30.59 391.17-24.19L391.17-24.19L391.17-24.19Q389.38-19.20 389.38-13.06ZM434.88-17.98L434.88-17.98L434.88-17.98Q437.18-22.08 437.18-26.24L437.18-26.24L437.18-26.24Q437.18-28.99 435.20-28.99L435.20-28.99L435.20-28.99Q433.66-28.99 432.06-26.37L432.06-26.37L432.06-26.37Q430.40-23.74 429.89-20.35L429.89-20.35L426.56 0L413.31 1.28L419.84-32.64L430.40-33.92L429.25-27.46L429.25-27.46Q432.38-33.92 439.42-33.92L439.42-33.92L439.42-33.92Q443.14-33.92 445.15-32L445.15-32L445.15-32Q447.17-30.08 447.17-26.14L447.17-26.14L447.17-26.14Q447.17-22.21 444.58-19.71L444.58-19.71L444.58-19.71Q441.98-17.22 437.57-17.22L437.57-17.22L437.57-17.22Q435.65-17.22 434.88-17.98ZM462.14 1.28L462.14 1.28L462.14 1.28Q448.06 1.28 448.06-11.97L448.06-11.97L448.06-11.97Q448.06-21.38 453.25-27.46L453.25-27.46L453.25-27.46Q458.75-33.92 468.29-33.92L468.29-33.92L468.29-33.92Q475.20-33.92 478.72-30.72L478.72-30.72L478.72-30.72Q482.24-27.52 482.24-20.80L482.24-20.80L482.24-20.80Q482.24-10.56 476.74-4.61L476.74-4.61L476.74-4.61Q471.36 1.28 462.14 1.28ZM463.81-26.56L463.81-26.56L463.81-26.56Q463.04-24.83 462.43-22.24L462.43-22.24L462.43-22.24Q461.82-19.65 461.06-15.55L461.06-15.55L461.06-15.55Q460.29-11.46 460.29-6.40L460.29-6.40L460.29-6.40Q460.29-4.74 460.83-3.65L460.83-3.65L460.83-3.65Q461.38-2.56 462.85-2.56L462.85-2.56L462.85-2.56Q464.32-2.56 465.25-3.26L465.25-3.26L465.25-3.26Q466.18-3.97 466.88-5.63L466.88-5.63L466.88-5.63Q468.16-8.58 469.18-14.05L469.18-14.05L469.18-14.05Q470.21-19.52 470.30-21.89L470.30-21.89L470.30-21.89Q470.40-24.26 470.40-26.02L470.40-26.02L470.40-26.02Q470.40-27.78 469.89-28.93L469.89-28.93L469.89-28.93Q469.38-30.08 467.94-30.08L467.94-30.08L467.94-30.08Q466.50-30.08 465.54-29.18L465.54-29.18L465.54-29.18Q464.58-28.29 463.81-26.56ZM506.56-2.69L506.56-2.69L506.56-2.69Q503.49 1.28 495.87 1.28L495.87 1.28L495.87 1.28Q491.90 1.28 489.02-1.12L489.02-1.12L489.02-1.12Q486.14-3.52 486.14-6.98L486.14-6.98L486.14-6.98Q486.14-8.90 486.34-9.86L486.34-9.86L490.62-32.64L503.62-33.92L498.94-9.22L498.94-9.22Q498.69-7.81 498.69-6.98L498.69-6.98L498.69-6.98Q498.69-3.26 500.93-3.26L500.93-3.26L500.93-3.26Q503.42-3.26 505.22-6.66L505.22-6.66L505.22-6.66Q505.79-7.74 506.05-9.15L506.05-9.15L510.59-32.64L523.20-33.92L518.46-8.96L518.46-8.96Q518.27-8 518.27-6.98L518.27-6.98L518.27-6.98Q518.27-5.95 518.85-4.83L518.85-4.83L518.85-4.83Q519.42-3.71 521.28-3.46L521.28-3.46L521.28-3.46Q520.90-1.92 519.55-0.90L519.55-0.90L519.55-0.90Q516.74 1.28 513.70 1.28L513.70 1.28L513.70 1.28Q510.66 1.28 508.86 0.19L508.86 0.19L508.86 0.19Q507.07-0.90 506.56-2.69ZM553.73 1.28L553.73 1.28L553.73 1.28Q545.98 1.28 545.98-4.74L545.98-4.74L545.98-4.74Q546.05-6.40 546.56-9.22L546.56-9.22L547.71-15.10L547.71-15.10Q549.44-23.42 549.44-25.28L549.44-25.28L549.44-25.28Q549.44-28.99 547.26-28.99L547.26-28.99L547.26-28.99Q543.62-28.99 541.70-19.46L541.70-19.46L537.92 0L525.06 1.28L531.71-32.70L542.21-33.92L541.18-27.65L541.18-27.65Q544.19-33.92 553.41-33.92L553.41-33.92L553.41-33.92Q557.89-33.92 559.78-32.03L559.78-32.03L559.78-32.03Q561.66-30.14 561.66-25.92L561.66-25.92L561.66-25.92Q561.66-21.95 559.62-12.67L559.62-12.67L559.62-12.67Q558.66-8.51 558.66-6.94L558.66-6.94L558.66-6.94Q558.66-5.38 559.52-4.48L559.52-4.48L559.52-4.48Q560.38-3.58 561.66-3.46L561.66-3.46L561.66-3.46Q561.02-1.28 558.82 0L558.82 0L558.82 0Q556.61 1.28 553.73 1.28ZM586.94-33.92L586.94-33.92L586.94-33.92Q589.25-33.92 591.04-33.41L591.04-33.41L591.04-33.41Q591.10-33.66 591.23-34.37L591.23-34.37L591.55-36.35L591.55-36.35Q591.81-37.63 592.19-39.74L592.19-39.74L593.22-44.80L605.95-46.08L598.85-8.96L598.85-8.96Q598.78-8.58 598.78-7.94L598.78-7.94L598.78-6.91L598.78-6.91Q598.78-5.50 599.49-4.45L599.49-4.45L599.49-4.45Q600.19-3.39 601.34-3.39L601.34-3.39L601.34-3.39Q600.06-0.38 596.16 0.90L596.16 0.90L596.16 0.90Q594.82 1.28 592.93 1.28L592.93 1.28L592.93 1.28Q591.04 1.28 589.31 0.29L589.31 0.29L589.31 0.29Q587.58-0.70 587.07-2.37L587.07-2.37L587.07-2.37Q586.05-0.70 584.00 0.29L584.00 0.29L584.00 0.29Q581.95 1.28 578.98 1.28L578.98 1.28L578.98 1.28Q576.00 1.28 573.54 0.51L573.54 0.51L573.54 0.51Q571.07-0.26 569.54-1.92L569.54-1.92L569.54-1.92Q566.72-5.18 566.72-12.61L566.72-12.61L566.72-12.61Q566.72-22.21 572.35-28.03L572.35-28.03L572.35-28.03Q577.98-33.92 586.94-33.92ZM586.50-30.08L586.50-30.08L586.50-30.08Q584.13-30.08 582.85-27.52L582.85-27.52L582.85-27.52Q581.57-24.96 580.26-18.62L580.26-18.62L580.26-18.62Q578.94-12.29 578.94-6.59L578.94-6.59L578.94-6.59Q578.94-2.69 581.25-2.69L581.25-2.69L581.25-2.69Q583.30-2.69 584.74-4.74L584.74-4.74L584.74-4.74Q586.18-6.78 586.75-10.18L586.75-10.18L590.21-28.93L590.21-28.93Q588.86-30.08 586.50-30.08Z" fill="#ffd5af"></path></g></g><style>text {
  font-size: 64px;
  font-family: Arial Black;
  dominant-baseline: central;
  text-anchor: middle;
}</style></svg>