<?xml version="1.0" encoding="UTF-8"?>
<!DOCTYPE svg PUBLIC "-//W3C//DTD SVG 1.1//EN" "http://www.w3.org/Graphics/SVG/1.1/DTD/svg11.dtd">
<svg xmlns="http://www.w3.org/2000/svg" version="1.1" width="512px" height="512px" style="shape-rendering:geometricPrecision; text-rendering:geometricPrecision; image-rendering:optimizeQuality; fill-rule:evenodd; clip-rule:evenodd" xmlns:xlink="http://www.w3.org/1999/xlink">
<g><path style="opacity:0.982" fill="#000000" d="M 171.5,-0.5 C 186.5,-0.5 201.5,-0.5 216.5,-0.5C 269.543,5.12556 317.876,23.2922 361.5,54C 411.311,89.4699 450.811,133.97 480,187.5C 497.118,221.341 507.618,257.008 511.5,294.5C 511.5,309.167 511.5,323.833 511.5,338.5C 510.24,347.392 508.74,356.392 507,365.5C 506.101,370.764 504.435,375.764 502,380.5C 495.749,387.011 488.582,388.177 480.5,384C 478.291,382.127 476.458,379.96 475,377.5C 472.183,353.381 465.516,330.381 455,308.5C 431.052,261.262 400.719,218.596 364,180.5C 329.702,143.509 291.869,111.009 250.5,83C 224.183,65.3426 195.849,51.6759 165.5,42C 155.337,39.1007 145.003,37.1007 134.5,36C 126.129,32.0913 122.963,25.5913 125,16.5C 126.4,13.0976 128.567,10.2643 131.5,8C 144.717,3.96981 158.05,1.13648 171.5,-0.5 Z"/></g>
<g><path style="opacity:0.959" fill="#000000" d="M 428.5,28.5 C 460.824,27.8299 478.824,43.4966 482.5,75.5C 482.343,90.4811 476.343,102.481 464.5,111.5C 444.5,88.1667 422.833,66.5 399.5,46.5C 407.183,37.1209 416.85,31.1209 428.5,28.5 Z"/></g>
<g><path style="opacity:0.988" fill="#000000" d="M 55.5,511.5 C 48.8333,511.5 42.1667,511.5 35.5,511.5C 16.7267,505.727 4.7267,493.394 -0.5,474.5C -0.5,468.167 -0.5,461.833 -0.5,455.5C 1.47678,449.208 4.31011,443.208 8,437.5C 102.833,342.667 197.667,247.833 292.5,153C 293.167,152.333 293.833,152.333 294.5,153C 313.76,170.382 332.26,188.549 350,207.5C 352.295,210.797 354.962,213.797 358,216.5C 358.667,217.167 358.667,217.833 358,218.5C 263.167,313.333 168.333,408.167 73.5,503C 67.7921,506.69 61.7921,509.523 55.5,511.5 Z"/></g>
</svg>
